<?xml version="1.0" encoding="UTF-8"?>
<svg width="14px" height="14px" viewBox="0 0 14 14" version="1.1" xmlns="http://www.w3.org/2000/svg" xmlns:xlink="http://www.w3.org/1999/xlink">
    <!-- Generator: Sketch 50 (54983) - http://www.bohemiancoding.com/sketch -->
    <title>bianji</title>
    <desc>Created with Sketch.</desc>
    <defs></defs>
    <g id="教师端-H5" stroke="none" stroke-width="1" fill="none" fill-rule="evenodd">
        <g id="002-00" transform="translate(-304.000000, -259.000000)">
            <g id="bianji" transform="translate(299.000000, 254.000000)">
                <rect id="Rectangle-11" x="0" y="0" width="24" height="24"></rect>
                <path d="M17.8610603,19 L6.11334552,19 C5.49908592,19 5,18.5009141 5,17.8866545 L5,6.1261426 C5,5.511883 5.49908592,5.01279708 6.11334552,5.01279708 L12,5.01279708 C12.2175503,5.01279708 12.3839122,5.17915906 12.3839122,5.39670933 C12.3839122,5.6142596 12.2175503,5.78062158 12,5.78062158 L6.11334552,5.78062158 C5.93418648,5.78062158 5.7678245,5.94698356 5.7678245,6.1261426 L5.7678245,17.8866545 C5.7678245,18.0658135 5.93418648,18.2321755 6.11334552,18.2321755 L17.8610603,18.2321755 C18.0402194,18.2321755 18.2065813,18.0658135 18.2065813,17.8866545 L18.2065813,11.9872029 C18.2065813,11.7696527 18.3729433,11.6032907 18.5904936,11.6032907 C18.8080439,11.6032907 18.9744058,11.7696527 18.9744058,11.9872029 L18.9744058,17.8866545 C18.9744058,18.5009141 18.4753199,19 17.8610603,19 Z M11.9872029,12.3967093 C11.8848263,12.3967093 11.7952468,12.3583181 11.7184643,12.2815357 C11.5648994,12.1279708 11.5648994,11.8848263 11.7184643,11.7440585 L18.3473492,5.11517367 C18.5009141,4.96160878 18.7440585,4.96160878 18.8848263,5.11517367 C19.0383912,5.26873857 19.0383912,5.511883 18.8848263,5.65265082 L12.2559415,12.2815357 C12.179159,12.3583181 12.0895795,12.3967093 11.9872029,12.3967093 Z" id="Combined-Shape" fill="#666666" fill-rule="nonzero"></path>
            </g>
        </g>
    </g>
</svg>