<?xml version="1.0" encoding="UTF-8"?>
<svg width="16px" height="20px" viewBox="0 0 16 20" version="1.1" xmlns="http://www.w3.org/2000/svg" xmlns:xlink="http://www.w3.org/1999/xlink">
    <!-- Generator: Sketch 50 (54983) - http://www.bohemiancoding.com/sketch -->
    <title>mima</title>
    <desc>Created with Sketch.</desc>
    <defs></defs>
    <g id="教师端-H5" stroke="none" stroke-width="1" fill="none" fill-rule="evenodd">
        <g id="000登录" transform="translate(-36.000000, -211.000000)">
            <g id="Group-7" transform="translate(32.000000, 164.000000)">
                <g id="mima" transform="translate(0.000000, 45.000000)">
                    <rect id="Rectangle-58" x="0" y="0" width="24" height="24"></rect>
                    <path d="M5.07088828,8.00000403 C5.55611621,4.60770793 8.47352669,2 12,2 C15.5264733,2 18.4438838,4.60770794 18.9291117,8.00000406 C18.9276245,8.00000137 18.926137,8.00000002 18.9246491,8.00000002 L17.9170416,8.00000002 C17.4409635,5.16228667 14.9729963,3 12,3 C9.02700371,3 6.55903653,5.16228666 6.08295844,8 L5.07535094,8 C5.07386302,8 5.07237547,8.00000135 5.07088828,8.00000403 Z M20,11.7788863 L19.9999761,11.7788863 L19.9999761,20.2211137 C19.9999761,21.2034844 19.1738472,22 18.1557923,22 L5.84475639,22 C4.82600962,22 4,21.2034844 4,20.2217809 L4,11.7788863 C4,10.7965156 4.8260096,10 5.84475639,10 L18.1552436,10 C19.1738472,10 20,10.7965156 20,11.7788863 Z M13.4814329,18.372963 L13.4814329,14.7488072 C13.4814329,14.0102109 12.8621165,13.4118705 12.0983725,13.4118705 L11.9022716,13.4118705 C11.1376926,13.4118705 10.5185194,14.0102109 10.5185194,14.748254 L10.5185194,18.372963 C10.5185194,19.1115363 11.1376926,19.7098536 11.9015797,19.7098536 L12.0977284,19.7098536 C12.8621404,19.7098536 13.4814329,19.1115363 13.4814329,18.372963 Z" id="Combined-Shape" fill="#CCCCCC" fill-rule="nonzero"></path>
                </g>
            </g>
        </g>
    </g>
</svg>