<?xml version="1.0" encoding="UTF-8"?>
<svg width="18px" height="18px" viewBox="0 0 18 18" version="1.1" xmlns="http://www.w3.org/2000/svg" xmlns:xlink="http://www.w3.org/1999/xlink">
    <!-- Generator: Sketch 50 (54983) - http://www.bohemiancoding.com/sketch -->
    <title>yanzhengma</title>
    <desc>Created with Sketch.</desc>
    <defs></defs>
    <g id="教师端-H5" stroke="none" stroke-width="1" fill="none" fill-rule="evenodd">
        <g id="000登录" transform="translate(-35.000000, -257.000000)">
            <g id="Group-7" transform="translate(32.000000, 164.000000)">
                <g id="yanzhengma" transform="translate(0.000000, 90.000000)">
                    <path d="M9.44017151,18.8019964 C8.48174793,20.1372212 6.96151668,21 5.25,21 C4.44480203,21 3.68194154,20.8090399 3,20.4677641 C3.76789421,20.0834735 4.43318572,19.5085873 4.94078849,18.8011367 C3.86360696,18.7698177 3,17.8867602 3,16.8019964 L3,5 C3,3.8954305 3.8954305,3 5,3 L19,3 C20.1045695,3 21,3.8954305 21,5 L21,16.8019964 C21,17.9065659 20.1045695,18.8019964 19,18.8019964 L9.44017151,18.8019964 Z M7.5,11.691098 C8.32842712,11.691098 9,10.9836185 9,10.1108984 C9,9.23817822 8.32842712,8.53069874 7.5,8.53069874 C6.67157288,8.53069874 6,9.23817822 6,10.1108984 C6,10.9836185 6.67157288,11.691098 7.5,11.691098 Z M12,11.691098 C12.8284271,11.691098 13.5,10.9836185 13.5,10.1108984 C13.5,9.23817822 12.8284271,8.53069874 12,8.53069874 C11.1715729,8.53069874 10.5,9.23817822 10.5,10.1108984 C10.5,10.9836185 11.1715729,11.691098 12,11.691098 Z M16.5,11.691098 C17.3284271,11.691098 18,10.9836185 18,10.1108984 C18,9.23817822 17.3284271,8.53069874 16.5,8.53069874 C15.6715729,8.53069874 15,9.23817822 15,10.1108984 C15,10.9836185 15.6715729,11.691098 16.5,11.691098 Z" id="ic_verification_code" fill="#CCCCCC"></path>
                    <rect id="Rectangle-58" x="0" y="0" width="24" height="24"></rect>
                </g>
            </g>
        </g>
    </g>
</svg>